<svg id="visual" viewBox="0 0 1000 200" width="1000" height="200" xmlns="http://www.w3.org/2000/svg" xmlns:xlink="http://www.w3.org/1999/xlink" version="1.1"><path d="M0 118L11.2 119.5C22.3 121 44.7 124 66.8 126C89 128 111 129 133.2 129C155.3 129 177.7 128 200 129.5C222.3 131 244.7 135 266.8 134.3C289 133.7 311 128.3 333.2 124.8C355.3 121.3 377.7 119.7 400 118.5C422.3 117.3 444.7 116.7 466.8 121.3C489 126 511 136 533.2 139.3C555.3 142.7 577.7 139.3 600 136C622.3 132.7 644.7 129.3 666.8 129C689 128.7 711 131.3 733.2 129C755.3 126.7 777.7 119.3 800 120.7C822.3 122 844.7 132 866.8 132.3C889 132.7 911 123.3 933.2 120C955.3 116.7 977.7 119.3 988.8 120.7L1000 122L1000 0L988.8 0C977.7 0 955.3 0 933.2 0C911 0 889 0 866.8 0C844.7 0 822.3 0 800 0C777.7 0 755.3 0 733.2 0C711 0 689 0 666.8 0C644.7 0 622.3 0 600 0C577.7 0 555.3 0 533.2 0C511 0 489 0 466.8 0C444.7 0 422.3 0 400 0C377.7 0 355.3 0 333.2 0C311 0 289 0 266.8 0C244.7 0 222.3 0 200 0C177.7 0 155.3 0 133.2 0C111 0 89 0 66.8 0C44.7 0 22.3 0 11.2 0L0 0Z" fill="#24b948"></path><path d="M0 103L11.2 102.8C22.3 102.7 44.7 102.3 66.8 99.3C89 96.3 111 90.7 133.2 92C155.3 93.3 177.7 101.7 200 105.3C222.3 109 244.7 108 266.8 106.5C289 105 311 103 333.2 99.7C355.3 96.3 377.7 91.7 400 91.3C422.3 91 444.7 95 466.8 99.5C489 104 511 109 533.2 111.8C555.3 114.7 577.7 115.3 600 111C622.3 106.7 644.7 97.3 666.8 92C689 86.7 711 85.3 733.2 87.2C755.3 89 777.7 94 800 93.8C822.3 93.7 844.7 88.3 866.8 85.5C889 82.7 911 82.3 933.2 83.7C955.3 85 977.7 88 988.8 89.5L1000 91L1000 0L988.8 0C977.7 0 955.3 0 933.2 0C911 0 889 0 866.8 0C844.7 0 822.3 0 800 0C777.7 0 755.3 0 733.2 0C711 0 689 0 666.8 0C644.7 0 622.3 0 600 0C577.7 0 555.3 0 533.2 0C511 0 489 0 466.8 0C444.7 0 422.3 0 400 0C377.7 0 355.3 0 333.2 0C311 0 289 0 266.8 0C244.7 0 222.3 0 200 0C177.7 0 155.3 0 133.2 0C111 0 89 0 66.8 0C44.7 0 22.3 0 11.2 0L0 0Z" fill="#008148"></path><path d="M0 80L11.2 79.7C22.3 79.3 44.7 78.7 66.8 74.8C89 71 111 64 133.2 60.3C155.3 56.7 177.7 56.3 200 59.7C222.3 63 244.7 70 266.8 71C289 72 311 67 333.2 64.5C355.3 62 377.7 62 400 65.2C422.3 68.3 444.7 74.7 466.8 74.5C489 74.3 511 67.7 533.2 67C555.3 66.3 577.7 71.7 600 73.5C622.3 75.3 644.7 73.7 666.8 73.8C689 74 711 76 733.2 74.2C755.3 72.3 777.7 66.7 800 63.7C822.3 60.7 844.7 60.3 866.8 61.2C889 62 911 64 933.2 63.7C955.3 63.3 977.7 60.7 988.8 59.3L1000 58L1000 0L988.8 0C977.7 0 955.3 0 933.2 0C911 0 889 0 866.8 0C844.7 0 822.3 0 800 0C777.7 0 755.3 0 733.2 0C711 0 689 0 666.8 0C644.7 0 622.3 0 600 0C577.7 0 555.3 0 533.2 0C511 0 489 0 466.8 0C444.7 0 422.3 0 400 0C377.7 0 355.3 0 333.2 0C311 0 289 0 266.8 0C244.7 0 222.3 0 200 0C177.7 0 155.3 0 133.2 0C111 0 89 0 66.8 0C44.7 0 22.3 0 11.2 0L0 0Z" fill="#004b36"></path><path d="M0 44L11.2 43C22.3 42 44.7 40 66.8 38.2C89 36.3 111 34.7 133.2 32.8C155.3 31 177.7 29 200 30.5C222.3 32 244.7 37 266.8 41C289 45 311 48 333.2 48.2C355.3 48.3 377.7 45.7 400 44C422.3 42.3 444.7 41.7 466.8 42C489 42.3 511 43.7 533.2 44.3C555.3 45 577.7 45 600 43C622.3 41 644.7 37 666.8 37C689 37 711 41 733.2 42.3C755.3 43.7 777.7 42.3 800 43C822.3 43.7 844.7 46.3 866.8 44.8C889 43.3 911 37.7 933.2 36.5C955.3 35.3 977.7 38.7 988.8 40.3L1000 42L1000 0L988.8 0C977.7 0 955.3 0 933.2 0C911 0 889 0 866.8 0C844.7 0 822.3 0 800 0C777.7 0 755.3 0 733.2 0C711 0 689 0 666.8 0C644.7 0 622.3 0 600 0C577.7 0 555.3 0 533.2 0C511 0 489 0 466.8 0C444.7 0 422.3 0 400 0C377.7 0 355.3 0 333.2 0C311 0 289 0 266.8 0C244.7 0 222.3 0 200 0C177.7 0 155.3 0 133.2 0C111 0 89 0 66.8 0C44.7 0 22.3 0 11.2 0L0 0Z" fill="#071a17"></path></svg>