<svg id="visual" viewBox="0 0 1000 100" width="1000" height="100" xmlns="http://www.w3.org/2000/svg" xmlns:xlink="http://www.w3.org/1999/xlink" version="1.1"><path d="M0 58L11.2 58.8C22.3 59.7 44.7 61.3 66.8 62.5C89 63.7 111 64.3 133.2 64.3C155.3 64.3 177.7 63.7 200 64.3C222.3 65 244.7 67 266.8 66.7C289 66.3 311 63.7 333.2 61.8C355.3 60 377.7 59 400 58.5C422.3 58 444.7 58 466.8 60.5C489 63 511 68 533.2 69.5C555.3 71 577.7 69 600 67.3C622.3 65.7 644.7 64.3 666.8 64.2C689 64 711 65 733.2 63.8C755.3 62.7 777.7 59.3 800 60C822.3 60.7 844.7 65.3 866.8 65.3C889 65.3 911 60.7 933.2 59.2C955.3 57.7 977.7 59.3 988.8 60.2L1000 61L1000 0L988.8 0C977.7 0 955.3 0 933.2 0C911 0 889 0 866.8 0C844.7 0 822.3 0 800 0C777.7 0 755.3 0 733.2 0C711 0 689 0 666.8 0C644.7 0 622.3 0 600 0C577.7 0 555.3 0 533.2 0C511 0 489 0 466.8 0C444.7 0 422.3 0 400 0C377.7 0 355.3 0 333.2 0C311 0 289 0 266.8 0C244.7 0 222.3 0 200 0C177.7 0 155.3 0 133.2 0C111 0 89 0 66.8 0C44.7 0 22.3 0 11.2 0L0 0Z" fill="#24b948"></path><path d="M0 51L11.2 50.8C22.3 50.7 44.7 50.3 66.8 48.8C89 47.3 111 44.7 133.2 45.3C155.3 46 177.7 50 200 51.8C222.3 53.7 244.7 53.3 266.8 52.7C289 52 311 51 333.2 49.3C355.3 47.7 377.7 45.3 400 45.2C422.3 45 444.7 47 466.8 49.2C489 51.3 511 53.7 533.2 55.2C555.3 56.7 577.7 57.3 600 55.3C622.3 53.3 644.7 48.7 666.8 46C689 43.3 711 42.7 733.2 43.5C755.3 44.3 777.7 46.7 800 46.5C822.3 46.3 844.7 43.7 866.8 42.2C889 40.7 911 40.3 933.2 41C955.3 41.7 977.7 43.3 988.8 44.2L1000 45L1000 0L988.8 0C977.7 0 955.3 0 933.2 0C911 0 889 0 866.8 0C844.7 0 822.3 0 800 0C777.7 0 755.3 0 733.2 0C711 0 689 0 666.8 0C644.7 0 622.3 0 600 0C577.7 0 555.3 0 533.2 0C511 0 489 0 466.8 0C444.7 0 422.3 0 400 0C377.7 0 355.3 0 333.2 0C311 0 289 0 266.8 0C244.7 0 222.3 0 200 0C177.7 0 155.3 0 133.2 0C111 0 89 0 66.8 0C44.7 0 22.3 0 11.2 0L0 0Z" fill="#008148"></path><path d="M0 39L11.2 38.8C22.3 38.7 44.7 38.3 66.8 36.5C89 34.7 111 31.3 133.2 29.7C155.3 28 177.7 28 200 29.7C222.3 31.3 244.7 34.7 266.8 35.2C289 35.7 311 33.3 333.2 32C355.3 30.7 377.7 30.3 400 31.8C422.3 33.3 444.7 36.7 466.8 36.7C489 36.7 511 33.3 533.2 33C555.3 32.7 577.7 35.3 600 36.3C622.3 37.3 644.7 36.7 666.8 36.7C689 36.7 711 37.3 733.2 36.3C755.3 35.3 777.7 32.7 800 31.3C822.3 30 844.7 30 866.8 30.3C889 30.7 911 31.3 933.2 31C955.3 30.7 977.7 29.3 988.8 28.7L1000 28L1000 0L988.8 0C977.7 0 955.3 0 933.2 0C911 0 889 0 866.8 0C844.7 0 822.3 0 800 0C777.7 0 755.3 0 733.2 0C711 0 689 0 666.8 0C644.7 0 622.3 0 600 0C577.7 0 555.3 0 533.2 0C511 0 489 0 466.8 0C444.7 0 422.3 0 400 0C377.7 0 355.3 0 333.2 0C311 0 289 0 266.8 0C244.7 0 222.3 0 200 0C177.7 0 155.3 0 133.2 0C111 0 89 0 66.8 0C44.7 0 22.3 0 11.2 0L0 0Z" fill="#004b36"></path><path d="M0 22L11.2 21.5C22.3 21 44.7 20 66.8 19C89 18 111 17 133.2 16C155.3 15 177.7 14 200 14.7C222.3 15.3 244.7 17.7 266.8 19.7C289 21.7 311 23.3 333.2 23.5C355.3 23.7 377.7 22.3 400 21.5C422.3 20.7 444.7 20.3 466.8 20.5C489 20.7 511 21.3 533.2 21.7C555.3 22 577.7 22 600 21C622.3 20 644.7 18 666.8 18C689 18 711 20 733.2 20.7C755.3 21.3 777.7 20.7 800 21C822.3 21.3 844.7 22.7 866.8 22C889 21.3 911 18.7 933.2 18.2C955.3 17.7 977.7 19.3 988.8 20.2L1000 21L1000 0L988.8 0C977.7 0 955.3 0 933.2 0C911 0 889 0 866.8 0C844.7 0 822.3 0 800 0C777.7 0 755.3 0 733.2 0C711 0 689 0 666.8 0C644.7 0 622.3 0 600 0C577.7 0 555.3 0 533.2 0C511 0 489 0 466.8 0C444.7 0 422.3 0 400 0C377.7 0 355.3 0 333.2 0C311 0 289 0 266.8 0C244.7 0 222.3 0 200 0C177.7 0 155.3 0 133.2 0C111 0 89 0 66.8 0C44.7 0 22.3 0 11.2 0L0 0Z" fill="#071a17"></path></svg>